<svg viewBox="0 0 500 1050" xmlns="http://www.w3.org/2000/svg">
  <style>
    .pointer {
      stroke: black;
      fill: white;
    }
    .arrow {
      stroke: white;
      fill: white;
    }
    .memblock {
      background-color: blue;
      color: blue;
    }
  </style>

  <defs>
    <marker id="arrowhead_down" markerWidth="10" markerHeight="10" refX="2.5" refY="0">
      <polygon class="pointer" points="0,0 5,0 2.5,5 0,0" />
    </marker>
    <marker id="arrowhead_up" markerWidth="10" markerHeight="10" refX="2.5" refY="2.5">
      <polygon points="0,5 5,5 2.5,0 0,5" />
    </marker>
    <marker id="arrowhead_right" markerWidth="10" markerHeight="10" refX="0" refY="2.5" orient="auto">
      <polygon class="arrow" points="0,0 5,2.5 0,5 0,0" />
    </marker>
    <marker id="arrowhead_left" markerWidth="10" markerHeight="10" refX="5" refY="2.5">
      <polygon points="0,2.5 5,0 5,5 0,2.5" />
    </marker>
  </defs>

  <rect x="5"   y="50" width="120" height="30" class="pointer"/>
  <rect x="5"   y="80" width="120" height="30" class="pointer"/>

  <rect x="200" y="50" width="20" height="30" class="pointer"/>
  <rect x="200" y="80" width="20" height="30" class="pointer"/>
  <rect x="200" y="110" width="20" height="30" class="pointer"/>
  <rect x="200" y="140" width="20" height="30" class="pointer"/>
  <rect x="200" y="170" width="20" height="30" class="pointer"/>
  <rect x="200" y="200" width="20" height="30" class="pointer"/>
  <rect x="200" y="230" width="20" height="30" class="pointer"/>
  <rect x="200" y="260" width="20" height="30" class="pointer"/>
  <rect x="200" y="290" width="20" height="30" class="pointer"/>
  <rect x="200" y="320" width="20" height="30" class="pointer"/>
  <rect x="200" y="350" width="20" height="30" class="pointer"/>
  <rect x="200" y="380" width="20" height="30" class="pointer"/>
  <rect x="200" y="410" width="20" height="30" class="pointer"/>
  <rect x="200" y="440" width="20" height="30" class="pointer"/>
  <rect x="200" y="470" width="20" height="30" class="pointer"/>
  <rect x="200" y="500" width="20" height="30" class="pointer"/>
  <rect x="200" y="530" width="20" height="30" class="pointer"/>
  <rect x="200" y="560" width="20" height="30" class="pointer"/>
  <rect x="200" y="590" width="20" height="30" class="pointer"/>
  <rect x="200" y="620" width="20" height="30" class="pointer"/>

  <rect x="200" y="650" width="20" height="30" class="pointer"/>
  <rect x="200" y="680" width="20" height="30" class="pointer"/>
  <rect x="200" y="710" width="20" height="30" class="pointer"/>
  <rect x="200" y="740" width="20" height="30" class="pointer"/>
  <rect x="200" y="770" width="20" height="30" class="pointer"/>
  <rect x="200" y="800" width="20" height="30" class="pointer"/>
  <rect x="200" y="830" width="20" height="30" class="pointer"/>
  <rect x="200" y="860" width="20" height="30" class="pointer"/>
  <rect x="200" y="890" width="20" height="30" class="pointer"/>
  <rect x="200" y="920" width="20" height="30" class="pointer"/>
  <rect x="200" y="950" width="20" height="30" class="pointer"/>
  <rect x="200" y="980" width="20" height="30" class="pointer"/>
  <rect x="200" y="1010" width="20" height="30" class="pointer"/>

  <line x1="125"  y1="65" x2="195" y2="65" marker-end="url(#arrowhead_right)" class="arrow"/>
  <line x1="125"  y1="95" x2="195" y2="540" marker-end="url(#arrowhead_right)" class="arrow"/>

  <text x="30"  y="70">environ[0]</text>
  <text x="30"  y="100">environ[1]</text>
  
  <text x="205" y="70">S</text>
  <text x="205" y="100">H</text>
  <text x="205" y="130">E</text>
  <text x="205" y="160">L</text>
  <text x="205" y="190">L</text>
  <text x="205" y="220">=</text>
  <text x="205" y="250">/</text>
  <text x="205" y="280">b</text>
  <text x="205" y="310">i</text>
  <text x="205" y="340">n</text>
  <text x="205" y="370">/</text>
  <text x="205" y="400">b</text>
  <text x="205" y="430">a</text>
  <text x="205" y="460">s</text>
  <text x="205" y="490">h</text>
  <text x="205" y="520">\0</text>

  <text x="205" y="550">H</text>
  <text x="205" y="580">O</text>
  <text x="205" y="610">M</text>
  <text x="205" y="640">E</text>
  <text x="205" y="670">=</text>
  <text x="205" y="700">/</text>
  <text x="205" y="730">h</text>
  <text x="205" y="760">o</text>
  <text x="205" y="790">m</text>
  <text x="205" y="820">e</text>
  <text x="205" y="850">/</text>
  <text x="205" y="880">l</text>
  <text x="205" y="910">l</text>
  <text x="205" y="940">o</text>
  <text x="205" y="970">y</text>
  <text x="205" y="1000">d</text>
  <text x="205" y="1030">\0</text>

</svg>
