<svg viewBox="0 0 400 250" xmlns="http://www.w3.org/2000/svg">
  <style>
    .small {
      dominant-baseline: central;
      text-anchor: middle;
      font-size:10px;
    }
    .unix {
      fill: #386cb0;
    }
    .ipip {
      fill: red;
    }
    .eth {
      fill: #beaed4;
    }
    .switch {
      fill: #f0027f;
    }
    .arrow {
      stroke: black;
      fill: black;
    }
    svg {
      background-color: #ffffff;
    }
  </style>

  <defs>
    <marker id="arrowhead_right" markerWidth="10" markerHeight="10" refX="0" refY="2.5" orient="auto">
      <polygon class="arrow" points="0,0 5,2.5 0,5 0,0" />
    </marker>
  </defs>

  <g transform="translate(15,15)">
    <g transform="translate(20,5)">
      <text x="0" y="0"  ><tspan>X</tspan><tspan baseline-shift="sub">0</tspan></text>
      <text x="0" y="25" ><tspan>X</tspan><tspan baseline-shift="sub">4</tspan></text>
      <text x="0" y="50" ><tspan>X</tspan><tspan baseline-shift="sub">2</tspan></text>
      <text x="0" y="75" ><tspan>X</tspan><tspan baseline-shift="sub">6</tspan></text>
      <text x="0" y="100"><tspan>X</tspan><tspan baseline-shift="sub">1</tspan></text>
      <text x="0" y="125"><tspan>X</tspan><tspan baseline-shift="sub">5</tspan></text>
      <text x="0" y="150"><tspan>X</tspan><tspan baseline-shift="sub">3</tspan></text>
      <text x="0" y="175"><tspan>X</tspan><tspan baseline-shift="sub">7</tspan></text>
    </g>
    <g transform="translate(345,5)">
      <text x="0" y="0"  ><tspan>X</tspan><tspan baseline-shift="sub">0</tspan></text>
      <text x="0" y="25" ><tspan>X</tspan><tspan baseline-shift="sub">1</tspan></text>
      <text x="0" y="50" ><tspan>X</tspan><tspan baseline-shift="sub">2</tspan></text>
      <text x="0" y="75" ><tspan>X</tspan><tspan baseline-shift="sub">3</tspan></text>
      <text x="0" y="100"><tspan>X</tspan><tspan baseline-shift="sub">4</tspan></text>
      <text x="0" y="125"><tspan>X</tspan><tspan baseline-shift="sub">5</tspan></text>
      <text x="0" y="150"><tspan>X</tspan><tspan baseline-shift="sub">6</tspan></text>
      <text x="0" y="175"><tspan>X</tspan><tspan baseline-shift="sub">7</tspan></text>
    </g>

    <g transform="translate(75,195)">
      <text x="0" y="0"  >Stage 1</text>
    </g>

    <g transform="translate(175,195)">
      <text x="0" y="0"  >Stage 2</text>
    </g>

    <g transform="translate(275,195)">
      <text x="0" y="0"  >Stage 3</text>
    </g>

    <!-- stage 1 -->
    <g transform="translate(45,0)">
      <circle cx="0" cy="0"   r="3" stroke="black" stroke-width="3" fill="white" />
      <circle cx="0" cy="25"  r="3" stroke="black" stroke-width="3" fill="white" />
      <circle cx="0" cy="50"  r="3" stroke="black" stroke-width="3" fill="white" />
      <circle cx="0" cy="75"  r="3" stroke="black" stroke-width="3" fill="white" />
      <circle cx="0" cy="100" r="3" stroke="black" stroke-width="3" fill="white" />
      <circle cx="0" cy="125" r="3" stroke="black" stroke-width="3" fill="white" />
      <circle cx="0" cy="150" r="3" stroke="black" stroke-width="3" fill="white" />
      <circle cx="0" cy="175" r="3" stroke="black" stroke-width="3" fill="white" />
    </g>
    <g transform="translate(150,0)">
      <circle cx="0" cy="0"   r="3" stroke="black" stroke-width="3" fill="white" />
      <circle cx="0" cy="25"  r="3" stroke="black" stroke-width="3" fill="white" />
      <circle cx="0" cy="50"  r="3" stroke="black" stroke-width="3" fill="white" />
      <circle cx="0" cy="75"  r="3" stroke="black" stroke-width="3" fill="white" />
      <circle cx="0" cy="100" r="3" stroke="black" stroke-width="3" fill="white" />
      <circle cx="0" cy="125" r="3" stroke="black" stroke-width="3" fill="white" />
      <circle cx="0" cy="150" r="3" stroke="black" stroke-width="3" fill="white" />
      <circle cx="0" cy="175" r="3" stroke="black" stroke-width="3" fill="white" />
    </g>
    <g transform="translate(47,0)">
      <line x1="1" y1="0"   x2="99" y2="0"   style="stroke:rgb(0,0,0);stroke-width:2" marker-end="" />
      <line x1="1" y1="25"  x2="99" y2="25"  style="stroke:rgb(0,0,0);stroke-width:2" marker-end="" />
      <line x1="1" y1="50"  x2="99" y2="50"  style="stroke:rgb(0,0,0);stroke-width:2" marker-end="" />
      <line x1="1" y1="75"  x2="99" y2="75"  style="stroke:rgb(0,0,0);stroke-width:2" marker-end="" />
      <line x1="1" y1="100" x2="99" y2="100" style="stroke:rgb(0,0,0);stroke-width:2" marker-end="" />
      <line x1="1" y1="125" x2="99" y2="125" style="stroke:rgb(0,0,0);stroke-width:2" marker-end="" />
      <line x1="1" y1="150" x2="99" y2="150" style="stroke:rgb(0,0,0);stroke-width:2" marker-end="" />
      <line x1="1" y1="175" x2="99" y2="175" style="stroke:rgb(0,0,0);stroke-width:2" marker-end="" />
    </g>
    <g transform="translate(47,0)">
      <line x1="1" y1="25"  x2="99" y2="0"   style="stroke:rgb(0,0,0);stroke-width:2" marker-end="" />
      <line x1="1" y1="0"   x2="99" y2="25"  style="stroke:rgb(0,0,0);stroke-width:2" marker-end="" />
      <line x1="1" y1="75"  x2="99" y2="50"  style="stroke:rgb(0,0,0);stroke-width:2" marker-end="" />
      <line x1="1" y1="50"  x2="99" y2="75"  style="stroke:rgb(0,0,0);stroke-width:2" marker-end="" />
      <line x1="1" y1="125" x2="99" y2="100" style="stroke:rgb(0,0,0);stroke-width:2" marker-end="" />
      <line x1="1" y1="100" x2="99" y2="125" style="stroke:rgb(0,0,0);stroke-width:2" marker-end="" />
      <line x1="1" y1="175" x2="99" y2="150" style="stroke:rgb(0,0,0);stroke-width:2" marker-end="" />
      <line x1="1" y1="150" x2="99" y2="175" style="stroke:rgb(0,0,0);stroke-width:2" marker-end="" />
    </g>

    <!-- stage 2 -->
    <g transform="translate(250,0)">
      <circle cx="0" cy="0"   r="3" stroke="black" stroke-width="3" fill="white" />
      <circle cx="0" cy="25"  r="3" stroke="black" stroke-width="3" fill="white" />
      <circle cx="0" cy="50"  r="3" stroke="black" stroke-width="3" fill="white" />
      <circle cx="0" cy="75"  r="3" stroke="black" stroke-width="3" fill="white" />
      <circle cx="0" cy="100" r="3" stroke="black" stroke-width="3" fill="white" />
      <circle cx="0" cy="125" r="3" stroke="black" stroke-width="3" fill="white" />
      <circle cx="0" cy="150" r="3" stroke="black" stroke-width="3" fill="white" />
      <circle cx="0" cy="175" r="3" stroke="black" stroke-width="3" fill="white" />
    </g>
    <g transform="translate(147,0)">
      <line x1="5" y1="0"   x2="99" y2="0"   style="stroke:rgb(0,0,0);stroke-width:2" marker-end="" />
      <line x1="5" y1="25"  x2="99" y2="25"  style="stroke:rgb(0,0,0);stroke-width:2" marker-end="" />
      <line x1="5" y1="50"  x2="99" y2="50"  style="stroke:rgb(0,0,0);stroke-width:2" marker-end="" />
      <line x1="5" y1="75"  x2="99" y2="75"  style="stroke:rgb(0,0,0);stroke-width:2" marker-end="" />
      <line x1="5" y1="100" x2="99" y2="100" style="stroke:rgb(0,0,0);stroke-width:2" marker-end="" />
      <line x1="5" y1="125" x2="99" y2="125" style="stroke:rgb(0,0,0);stroke-width:2" marker-end="" />
      <line x1="5" y1="150" x2="99" y2="150" style="stroke:rgb(0,0,0);stroke-width:2" marker-end="" />
      <line x1="5" y1="175" x2="99" y2="175" style="stroke:rgb(0,0,0);stroke-width:2" marker-end="" />
    </g>
    <g transform="translate(147,0)">
      <line x1="5" y1="0"   x2="99" y2="50"  style="stroke:rgb(0,0,0);stroke-width:2" marker-end="" />
      <line x1="5" y1="25"  x2="99" y2="75"  style="stroke:rgb(0,0,0);stroke-width:2" marker-end="" />
      <line x1="5" y1="50"  x2="99" y2="0"   style="stroke:rgb(0,0,0);stroke-width:2" marker-end="" />
      <line x1="5" y1="75"  x2="99" y2="25"  style="stroke:rgb(0,0,0);stroke-width:2" marker-end="" />
      <line x1="5" y1="100" x2="99" y2="150" style="stroke:rgb(0,0,0);stroke-width:2" marker-end="" />
      <line x1="5" y1="125" x2="99" y2="175" style="stroke:rgb(0,0,0);stroke-width:2" marker-end="" />
      <line x1="5" y1="150" x2="99" y2="100" style="stroke:rgb(0,0,0);stroke-width:2" marker-end="" />
      <line x1="5" y1="175" x2="99" y2="125" style="stroke:rgb(0,0,0);stroke-width:2" marker-end="" />
    </g>

    <!-- stage 3 -->
    <g transform="translate(340,0)">
      <circle cx="0" cy="0"   r="3" stroke="black" stroke-width="3" fill="white" />
      <circle cx="0" cy="25"  r="3" stroke="black" stroke-width="3" fill="white" />
      <circle cx="0" cy="50"  r="3" stroke="black" stroke-width="3" fill="white" />
      <circle cx="0" cy="75"  r="3" stroke="black" stroke-width="3" fill="white" />
      <circle cx="0" cy="100" r="3" stroke="black" stroke-width="3" fill="white" />
      <circle cx="0" cy="125" r="3" stroke="black" stroke-width="3" fill="white" />
      <circle cx="0" cy="150" r="3" stroke="black" stroke-width="3" fill="white" />
      <circle cx="0" cy="175" r="3" stroke="black" stroke-width="3" fill="white" />
    </g>
    <g transform="translate(247,0)">
      <line x1="5" y1="0"   x2="90" y2="0"   style="stroke:rgb(0,0,0);stroke-width:2" marker-end="" />
      <line x1="5" y1="25"  x2="90" y2="25"  style="stroke:rgb(0,0,0);stroke-width:2" marker-end="" />
      <line x1="5" y1="50"  x2="90" y2="50"  style="stroke:rgb(0,0,0);stroke-width:2" marker-end="" />
      <line x1="5" y1="75"  x2="90" y2="75"  style="stroke:rgb(0,0,0);stroke-width:2" marker-end="" />
      <line x1="5" y1="100" x2="90" y2="100" style="stroke:rgb(0,0,0);stroke-width:2" marker-end="" />
      <line x1="5" y1="125" x2="90" y2="125" style="stroke:rgb(0,0,0);stroke-width:2" marker-end="" />
      <line x1="5" y1="150" x2="90" y2="150" style="stroke:rgb(0,0,0);stroke-width:2" marker-end="" />
      <line x1="5" y1="175" x2="90" y2="175" style="stroke:rgb(0,0,0);stroke-width:2" marker-end="" />
    </g>
    <g transform="translate(247,0)">
      <line x1="5" y1="0"   x2="90" y2="100" style="stroke:rgb(0,0,0);stroke-width:2" marker-end="" />
      <line x1="5" y1="25"  x2="90" y2="125" style="stroke:rgb(0,0,0);stroke-width:2" marker-end="" />
      <line x1="5" y1="50"  x2="90" y2="150" style="stroke:rgb(0,0,0);stroke-width:2" marker-end="" />
      <line x1="5" y1="75"  x2="90" y2="175" style="stroke:rgb(0,0,0);stroke-width:2" marker-end="" />
      <line x1="5" y1="100" x2="90" y2="0"   style="stroke:rgb(0,0,0);stroke-width:2" marker-end="" />
      <line x1="5" y1="125" x2="90" y2="25"  style="stroke:rgb(0,0,0);stroke-width:2" marker-end="" />
      <line x1="5" y1="150" x2="90" y2="50"  style="stroke:rgb(0,0,0);stroke-width:2" marker-end="" />
      <line x1="5" y1="175" x2="90" y2="75"  style="stroke:rgb(0,0,0);stroke-width:2" marker-end="" />
    </g>
  </g>

</svg>
