<svg viewBox="0 0 320 220" xmlns="http://www.w3.org/2000/svg">
  <style>
    .small {
      dominant-baseline: central;
      text-anchor: middle;
      font-size:10px;
    }
    .right {
      dominant-baseline: central;
      text-anchor: end;
      font-size:10px;
    }
    .left {
      dominant-baseline: central;
      text-anchor: start;
      font-size:10px;
    }
    .unix {
      fill: #FFDC73;
    }
  </style>

  <g transform="translate(5,5)">
    <g>
    <rect width="100" height="200" rx="5" class="unix"/>
    <text x="50" y="10" class="small">Raspberry Pi 1</text>
    </g>


    <g transform="translate(0,5)">
      <line x1="100" x2="140" y1="90" y2="90" stroke="green" />
      <line x1="160" x2="200" y1="110" y2="110" stroke="green" />
      <line x1="140" x2="160" y1="90" y2="110" stroke="green" />

      <line x1="100" x2="140" y1="110" y2="110" stroke="red" />
      <line x1="160" x2="200" y1="90" y2="90" stroke="red" />
      <line x1="160" x2="140" y1="90" y2="110" stroke="red" />

      <line x1="100" x2="200" y1="150" y2="150" stroke="black" />
    </g>

    <g transform="translate(50,95)">
      <text x="45" y="0" class="right">Pin 8 - UART TX</text>
      <text x="45" y="20" class="right">Pin 10 - UART RX</text>
      <text x="45" y="60" class="right">Ground</text>
    </g>
  </g>

  <g transform="translate(205,5)">
    <rect width="100" height="200" rx="5" class="unix"/>
    <text x="50" y="10" class="small">Raspberry Pi 2</text>
    <g transform="translate(5,5)">
      <text x="0" y="90" class="left">Pin 8 - UART TX</text>
      <text x="0" y="110" class="left">Pin 10 - UART RX</text>
      <text x="0" y="150" class="left">Ground</text>
    </g>
  </g>






</svg>
